<?xml version="1.0" encoding="UTF-8" standalone="no"?>
<!DOCTYPE svg PUBLIC "-//W3C//DTD SVG 1.1//EN"
 "http://www.w3.org/Graphics/SVG/1.1/DTD/svg11.dtd">
<!-- Generated by graphviz version 2.40.1 (20161225.0304)
 -->
<!-- Title: dependencies Pages: 1 -->
<svg width="504pt" height="284pt"
 viewBox="0.00 0.00 504.00 284.00" xmlns="http://www.w3.org/2000/svg" xmlns:xlink="http://www.w3.org/1999/xlink">
<g id="graph0" class="graph" transform="scale(1 1) rotate(0) translate(4 280)">
<title>dependencies</title>
<polygon fill="#ffffff" stroke="transparent" points="-4,4 -4,-280 500,-280 500,4 -4,4"/>
<text text-anchor="start" x="227.0091" y="-42.4" font-family="sans-serif" font-weight="bold" font-size="14.00" fill="#000000">Legend</text>
<polygon fill="#ffffb3" stroke="transparent" points="14,-10 14,-30 34,-30 34,-10 14,-10"/>
<text text-anchor="start" x="37.629" y="-15.4" font-family="sans-serif" font-size="14.00" fill="#000000"> &#160;Declarations</text>
<polygon fill="#8dd3c7" stroke="transparent" points="127,-10 127,-30 147,-30 147,-10 127,-10"/>
<text text-anchor="start" x="150.7251" y="-15.4" font-family="sans-serif" font-size="14.00" fill="#000000"> &#160;Module</text>
<polygon fill="#80b1d3" stroke="transparent" points="213,-10 213,-30 233,-30 233,-10 213,-10"/>
<text text-anchor="start" x="236.7812" y="-15.4" font-family="sans-serif" font-size="14.00" fill="#000000"> &#160;Bootstrap</text>
<polygon fill="#fdb462" stroke="transparent" points="310,-10 310,-30 330,-30 330,-10 310,-10"/>
<text text-anchor="start" x="333.6732" y="-15.4" font-family="sans-serif" font-size="14.00" fill="#000000"> &#160;Providers</text>
<polygon fill="#fb8072" stroke="transparent" points="406,-10 406,-30 426,-30 426,-10 406,-10"/>
<text text-anchor="start" x="429.7258" y="-15.4" font-family="sans-serif" font-size="14.00" fill="#000000"> &#160;Exports</text>
<g id="clust1" class="cluster">
<title>cluster_SubjectModule</title>
<polygon fill="none" stroke="#000000" stroke-dasharray="1,5" points="96,-70 96,-268 400,-268 400,-70 96,-70"/>
</g>
<g id="clust3" class="cluster">
<title>cluster_SubjectModule_imports</title>
<polygon fill="none" stroke="#000000" points="266,-78 266,-130 392,-130 392,-78 266,-78"/>
</g>
<g id="clust4" class="cluster">
<title>cluster_SubjectModule_exports</title>
<polygon fill="none" stroke="#000000" points="195,-208 195,-260 315,-260 315,-208 195,-208"/>
</g>
<g id="clust6" class="cluster">
<title>cluster_SubjectModule_providers</title>
<polygon fill="none" stroke="#000000" points="104,-78 104,-130 258,-130 258,-78 104,-78"/>
</g>
<!-- DatabaseModule -->
<g id="node1" class="node">
<title>DatabaseModule</title>
<polygon fill="#8dd3c7" stroke="#000000" points="384.3501,-122 381.3501,-126 360.3501,-126 357.3501,-122 273.6499,-122 273.6499,-86 384.3501,-86 384.3501,-122"/>
<text text-anchor="middle" x="329" y="-99.8" font-family="Times,serif" font-size="14.00" fill="#000000">DatabaseModule</text>
</g>
<!-- SubjectModule -->
<g id="node2" class="node">
<title>SubjectModule</title>
<polygon fill="#8dd3c7" stroke="#000000" points="305.5438,-187 302.5438,-191 281.5438,-191 278.5438,-187 204.4562,-187 204.4562,-151 305.5438,-151 305.5438,-187"/>
<text text-anchor="middle" x="255" y="-164.8" font-family="Times,serif" font-size="14.00" fill="#000000">SubjectModule</text>
</g>
<!-- DatabaseModule&#45;&gt;SubjectModule -->
<g id="edge1" class="edge">
<title>DatabaseModule&#45;&gt;SubjectModule</title>
<path fill="none" stroke="#000000" d="M289.6732,-122.1061C289.6732,-122.1061 289.6732,-140.991 289.6732,-140.991"/>
<polygon fill="#000000" stroke="#000000" points="286.1733,-140.9909 289.6732,-150.991 293.1733,-140.991 286.1733,-140.9909"/>
</g>
<!-- SubjectService  -->
<g id="node3" class="node">
<title>SubjectService </title>
<polygon fill="#fb8072" stroke="#000000" points="306.9717,-252 203.0283,-252 203.0283,-216 306.9717,-216 306.9717,-252"/>
<text text-anchor="middle" x="255" y="-229.8" font-family="Times,serif" font-size="14.00" fill="#000000">SubjectService </text>
</g>
<!-- SubjectModule&#45;&gt;SubjectService  -->
<g id="edge2" class="edge">
<title>SubjectModule&#45;&gt;SubjectService </title>
<path fill="none" stroke="#000000" stroke-dasharray="5,2" d="M255,-187.1061C255,-187.1061 255,-205.991 255,-205.991"/>
<polygon fill="#000000" stroke="#000000" points="251.5001,-205.9909 255,-215.991 258.5001,-205.991 251.5001,-205.9909"/>
</g>
<!-- SubjectService -->
<g id="node4" class="node">
<title>SubjectService</title>
<ellipse fill="#fdb462" stroke="#000000" cx="181" cy="-104" rx="68.9158" ry="18"/>
<text text-anchor="middle" x="181" y="-99.8" font-family="Times,serif" font-size="14.00" fill="#000000">SubjectService</text>
</g>
<!-- SubjectService&#45;&gt;SubjectModule -->
<g id="edge3" class="edge">
<title>SubjectService&#45;&gt;SubjectModule</title>
<path fill="none" stroke="#000000" d="M227.0932,-117.468C227.0932,-117.468 227.0932,-140.8642 227.0932,-140.8642"/>
<polygon fill="#000000" stroke="#000000" points="223.5933,-140.8641 227.0932,-150.8642 230.5933,-140.8642 223.5933,-140.8641"/>
</g>
</g>
</svg>
