<?xml version="1.0" encoding="UTF-8" standalone="no"?>
<!DOCTYPE svg PUBLIC "-//W3C//DTD SVG 1.1//EN"
 "http://www.w3.org/Graphics/SVG/1.1/DTD/svg11.dtd">
<!-- Generated by graphviz version 2.40.1 (20161225.0304)
 -->
<!-- Title: dependencies Pages: 1 -->
<svg width="837pt" height="363pt"
 viewBox="0.00 0.00 837.00 363.00" xmlns="http://www.w3.org/2000/svg" xmlns:xlink="http://www.w3.org/1999/xlink">
<g id="graph0" class="graph" transform="scale(1 1) rotate(0) translate(4 359)">
<title>dependencies</title>
<polygon fill="#ffffff" stroke="transparent" points="-4,4 -4,-359 833,-359 833,4 -4,4"/>
<text text-anchor="start" x="393.5091" y="-42.4" font-family="sans-serif" font-weight="bold" font-size="14.00" fill="#000000">Legend</text>
<polygon fill="#ffffb3" stroke="transparent" points="180.5,-10 180.5,-30 200.5,-30 200.5,-10 180.5,-10"/>
<text text-anchor="start" x="204.129" y="-15.4" font-family="sans-serif" font-size="14.00" fill="#000000"> &#160;Declarations</text>
<polygon fill="#8dd3c7" stroke="transparent" points="293.5,-10 293.5,-30 313.5,-30 313.5,-10 293.5,-10"/>
<text text-anchor="start" x="317.2251" y="-15.4" font-family="sans-serif" font-size="14.00" fill="#000000"> &#160;Module</text>
<polygon fill="#80b1d3" stroke="transparent" points="379.5,-10 379.5,-30 399.5,-30 399.5,-10 379.5,-10"/>
<text text-anchor="start" x="403.2812" y="-15.4" font-family="sans-serif" font-size="14.00" fill="#000000"> &#160;Bootstrap</text>
<polygon fill="#fdb462" stroke="transparent" points="476.5,-10 476.5,-30 496.5,-30 496.5,-10 476.5,-10"/>
<text text-anchor="start" x="500.1732" y="-15.4" font-family="sans-serif" font-size="14.00" fill="#000000"> &#160;Providers</text>
<polygon fill="#fb8072" stroke="transparent" points="572.5,-10 572.5,-30 592.5,-30 592.5,-10 572.5,-10"/>
<text text-anchor="start" x="596.2258" y="-15.4" font-family="sans-serif" font-size="14.00" fill="#000000"> &#160;Exports</text>
<g id="clust1" class="cluster">
<title>cluster_AppModule</title>
<polygon fill="none" stroke="#000000" stroke-dasharray="1,5" points="315,-146 315,-347 553,-347 553,-146 315,-146"/>
</g>
<g id="clust3" class="cluster">
<title>cluster_AppModule_imports</title>
<polygon fill="none" stroke="#000000" points="323,-154 323,-282 545,-282 545,-154 323,-154"/>
</g>
<g id="clust7" class="cluster">
<title>cluster_AuthModule</title>
<polygon fill="none" stroke="#000000" stroke-dasharray="1,5" points="8,-146 8,-214 307,-214 307,-146 8,-146"/>
</g>
<g id="clust12" class="cluster">
<title>cluster_AuthModule_providers</title>
<polygon fill="none" stroke="#000000" points="16,-154 16,-206 299,-206 299,-154 16,-154"/>
</g>
<g id="clust19" class="cluster">
<title>cluster_SubjectModule</title>
<polygon fill="none" stroke="#000000" stroke-dasharray="1,5" points="142,-70 142,-138 574,-138 574,-70 142,-70"/>
</g>
<g id="clust21" class="cluster">
<title>cluster_SubjectModule_imports</title>
<polygon fill="none" stroke="#000000" points="440,-78 440,-130 566,-130 566,-78 440,-78"/>
</g>
<g id="clust22" class="cluster">
<title>cluster_SubjectModule_exports</title>
<polygon fill="none" stroke="#000000" points="312,-78 312,-130 432,-130 432,-78 312,-78"/>
</g>
<g id="clust24" class="cluster">
<title>cluster_SubjectModule_providers</title>
<polygon fill="none" stroke="#000000" points="150,-78 150,-130 304,-130 304,-78 150,-78"/>
</g>
<g id="clust25" class="cluster">
<title>cluster_UserModule</title>
<polygon fill="none" stroke="#000000" stroke-dasharray="1,5" points="561,-222 561,-290 821,-290 821,-222 561,-222"/>
</g>
<g id="clust28" class="cluster">
<title>cluster_UserModule_exports</title>
<polygon fill="none" stroke="#000000" points="709,-230 709,-282 813,-282 813,-230 709,-230"/>
</g>
<g id="clust30" class="cluster">
<title>cluster_UserModule_providers</title>
<polygon fill="none" stroke="#000000" points="569,-230 569,-282 701,-282 701,-230 569,-230"/>
</g>
<!-- AuthModule -->
<g id="node1" class="node">
<title>AuthModule</title>
<polygon fill="#8dd3c7" stroke="#000000" points="418.5482,-274 415.5482,-278 394.5482,-278 391.5482,-274 331.4518,-274 331.4518,-238 418.5482,-238 418.5482,-274"/>
<text text-anchor="middle" x="375" y="-251.8" font-family="Times,serif" font-size="14.00" fill="#000000">AuthModule</text>
</g>
<!-- AppModule -->
<g id="node4" class="node">
<title>AppModule</title>
<polygon fill="#8dd3c7" stroke="#000000" points="479.6571,-339 476.6571,-343 455.6571,-343 452.6571,-339 396.3429,-339 396.3429,-303 479.6571,-303 479.6571,-339"/>
<text text-anchor="middle" x="438" y="-316.8" font-family="Times,serif" font-size="14.00" fill="#000000">AppModule</text>
</g>
<!-- AuthModule&#45;&gt;AppModule -->
<g id="edge1" class="edge">
<title>AuthModule&#45;&gt;AppModule</title>
<path fill="none" stroke="#000000" d="M407.4727,-274.1061C407.4727,-274.1061 407.4727,-292.991 407.4727,-292.991"/>
<polygon fill="#000000" stroke="#000000" points="403.9727,-292.9909 407.4727,-302.991 410.9727,-292.991 403.9727,-292.9909"/>
</g>
<!-- SubjectModule -->
<g id="node2" class="node">
<title>SubjectModule</title>
<polygon fill="#8dd3c7" stroke="#000000" points="432.5438,-198 429.5438,-202 408.5438,-202 405.5438,-198 331.4562,-198 331.4562,-162 432.5438,-162 432.5438,-198"/>
<text text-anchor="middle" x="382" y="-175.8" font-family="Times,serif" font-size="14.00" fill="#000000">SubjectModule</text>
</g>
<!-- SubjectModule&#45;&gt;AppModule -->
<g id="edge2" class="edge">
<title>SubjectModule&#45;&gt;AppModule</title>
<path fill="none" stroke="#000000" d="M425.7725,-198.1446C425.7725,-198.1446 425.7725,-292.925 425.7725,-292.925"/>
<polygon fill="#000000" stroke="#000000" points="422.2725,-292.925 425.7725,-302.925 429.2725,-292.925 422.2725,-292.925"/>
</g>
<!-- SubjectService  -->
<g id="node8" class="node">
<title>SubjectService </title>
<polygon fill="#fb8072" stroke="#000000" points="423.9717,-122 320.0283,-122 320.0283,-86 423.9717,-86 423.9717,-122"/>
<text text-anchor="middle" x="372" y="-99.8" font-family="Times,serif" font-size="14.00" fill="#000000">SubjectService </text>
</g>
<!-- SubjectModule&#45;&gt;SubjectService  -->
<g id="edge8" class="edge">
<title>SubjectModule&#45;&gt;SubjectService </title>
<path fill="none" stroke="#000000" stroke-dasharray="5,2" d="M377.482,-161.9891C377.482,-161.9891 377.482,-132.145 377.482,-132.145"/>
<polygon fill="#000000" stroke="#000000" points="380.982,-132.145 377.482,-122.145 373.982,-132.1451 380.982,-132.145"/>
</g>
<!-- UserModule -->
<g id="node3" class="node">
<title>UserModule</title>
<polygon fill="#8dd3c7" stroke="#000000" points="536.9762,-198 533.9762,-202 512.9762,-202 509.9762,-198 451.0238,-198 451.0238,-162 536.9762,-162 536.9762,-198"/>
<text text-anchor="middle" x="494" y="-175.8" font-family="Times,serif" font-size="14.00" fill="#000000">UserModule</text>
</g>
<!-- UserModule&#45;&gt;AuthModule -->
<g id="edge4" class="edge">
<title>UserModule&#45;&gt;AuthModule</title>
<path fill="none" stroke="#000000" d="M460.6173,-198.1985C460.6173,-222.3563 460.6173,-262 460.6173,-262 460.6173,-262 428.5611,-262 428.5611,-262"/>
<polygon fill="#000000" stroke="#000000" points="428.5612,-258.5001 418.5611,-262 428.5611,-265.5001 428.5612,-258.5001"/>
</g>
<!-- UserModule&#45;&gt;AppModule -->
<g id="edge3" class="edge">
<title>UserModule&#45;&gt;AppModule</title>
<path fill="none" stroke="#000000" d="M470.2228,-198.1446C470.2228,-198.1446 470.2228,-292.925 470.2228,-292.925"/>
<polygon fill="#000000" stroke="#000000" points="466.7229,-292.925 470.2228,-302.925 473.7229,-292.925 466.7229,-292.925"/>
</g>
<!-- UserService  -->
<g id="node10" class="node">
<title>UserService </title>
<polygon fill="#fb8072" stroke="#000000" points="804.9041,-274 717.0959,-274 717.0959,-238 804.9041,-238 804.9041,-274"/>
<text text-anchor="middle" x="761" y="-251.8" font-family="Times,serif" font-size="14.00" fill="#000000">UserService </text>
</g>
<!-- UserModule&#45;&gt;UserService  -->
<g id="edge11" class="edge">
<title>UserModule&#45;&gt;UserService </title>
<path fill="none" stroke="#000000" stroke-dasharray="5,2" d="M537.1949,-180C612.7617,-180 761,-180 761,-180 761,-180 761,-227.9891 761,-227.9891"/>
<polygon fill="#000000" stroke="#000000" points="757.5001,-227.989 761,-237.9891 764.5001,-227.9891 757.5001,-227.989"/>
</g>
<!-- AuthService -->
<g id="node5" class="node">
<title>AuthService</title>
<ellipse fill="#fdb462" stroke="#000000" cx="232" cy="-180" rx="59.1083" ry="18"/>
<text text-anchor="middle" x="232" y="-175.8" font-family="Times,serif" font-size="14.00" fill="#000000">AuthService</text>
</g>
<!-- AuthService&#45;&gt;AuthModule -->
<g id="edge5" class="edge">
<title>AuthService&#45;&gt;AuthModule</title>
<path fill="none" stroke="#000000" d="M232,-198.0267C232,-218.7672 232,-250 232,-250 232,-250 321.3183,-250 321.3183,-250"/>
<polygon fill="#000000" stroke="#000000" points="321.3183,-253.5001 331.3183,-250 321.3182,-246.5001 321.3183,-253.5001"/>
</g>
<!-- LocalStrategy -->
<g id="node6" class="node">
<title>LocalStrategy</title>
<ellipse fill="#fdb462" stroke="#000000" cx="89" cy="-180" rx="65.4053" ry="18"/>
<text text-anchor="middle" x="89" y="-175.8" font-family="Times,serif" font-size="14.00" fill="#000000">LocalStrategy</text>
</g>
<!-- LocalStrategy&#45;&gt;AuthModule -->
<g id="edge6" class="edge">
<title>LocalStrategy&#45;&gt;AuthModule</title>
<path fill="none" stroke="#000000" d="M89,-198.1985C89,-222.3563 89,-262 89,-262 89,-262 321.2514,-262 321.2514,-262"/>
<polygon fill="#000000" stroke="#000000" points="321.2515,-265.5001 331.2514,-262 321.2514,-258.5001 321.2515,-265.5001"/>
</g>
<!-- DatabaseModule -->
<g id="node7" class="node">
<title>DatabaseModule</title>
<polygon fill="#8dd3c7" stroke="#000000" points="558.3501,-122 555.3501,-126 534.3501,-126 531.3501,-122 447.6499,-122 447.6499,-86 558.3501,-86 558.3501,-122"/>
<text text-anchor="middle" x="503" y="-99.8" font-family="Times,serif" font-size="14.00" fill="#000000">DatabaseModule</text>
</g>
<!-- DatabaseModule&#45;&gt;SubjectModule -->
<g id="edge7" class="edge">
<title>DatabaseModule&#45;&gt;SubjectModule</title>
<path fill="none" stroke="#000000" d="M447.5025,-104C436.4938,-104 428.2534,-104 428.2534,-104 428.2534,-104 428.2534,-151.9891 428.2534,-151.9891"/>
<polygon fill="#000000" stroke="#000000" points="424.7534,-151.989 428.2534,-161.9891 431.7534,-151.9891 424.7534,-151.989"/>
</g>
<!-- DatabaseModule&#45;&gt;UserModule -->
<g id="edge10" class="edge">
<title>DatabaseModule&#45;&gt;UserModule</title>
<path fill="none" stroke="#000000" d="M494,-122.0109C494,-122.0109 494,-151.855 494,-151.855"/>
<polygon fill="#000000" stroke="#000000" points="490.5001,-151.8549 494,-161.855 497.5001,-151.855 490.5001,-151.8549"/>
</g>
<!-- SubjectService -->
<g id="node9" class="node">
<title>SubjectService</title>
<ellipse fill="#fdb462" stroke="#000000" cx="227" cy="-104" rx="68.9158" ry="18"/>
<text text-anchor="middle" x="227" y="-99.8" font-family="Times,serif" font-size="14.00" fill="#000000">SubjectService</text>
</g>
<!-- SubjectService&#45;&gt;SubjectModule -->
<g id="edge9" class="edge">
<title>SubjectService&#45;&gt;SubjectModule</title>
<path fill="none" stroke="#000000" d="M296.143,-104C303.3537,-104 308.1113,-104 308.1113,-104 308.1113,-104 308.1113,-180 308.1113,-180 308.1113,-180 321.0851,-180 321.0851,-180"/>
<polygon fill="#000000" stroke="#000000" points="321.0852,-183.5001 331.0851,-180 321.0851,-176.5001 321.0852,-183.5001"/>
</g>
<!-- UserService -->
<g id="node11" class="node">
<title>UserService</title>
<ellipse fill="#fdb462" stroke="#000000" cx="635" cy="-256" rx="58.4415" ry="18"/>
<text text-anchor="middle" x="635" y="-251.8" font-family="Times,serif" font-size="14.00" fill="#000000">UserService</text>
</g>
<!-- UserService&#45;&gt;UserModule -->
<g id="edge12" class="edge">
<title>UserService&#45;&gt;UserModule</title>
<path fill="none" stroke="#000000" d="M579.8432,-250C545.7293,-250 508.4082,-250 508.4082,-250 508.4082,-250 508.4082,-208.0267 508.4082,-208.0267"/>
<polygon fill="#000000" stroke="#000000" points="511.9082,-208.0267 508.4082,-198.0267 504.9082,-208.0268 511.9082,-208.0267"/>
</g>
</g>
</svg>
